<svg xmlns="http://www.w3.org/2000/svg" width="79" height="76" viewBox="0 0 79 76">
  <g id="Grupo_4509" data-name="Grupo 4509" transform="translate(-139 -1390)">
    <rect id="Rectángulo_3159" data-name="Rectángulo 3159" width="79" height="76" transform="translate(139 1390)" fill="#ccc"/>
    <path id="user-solid" d="M21.658,24.752A12.376,12.376,0,1,0,9.282,12.376,12.375,12.375,0,0,0,21.658,24.752Zm8.663,3.094H28.707a16.831,16.831,0,0,1-14.1,0H12.995A13,13,0,0,0,0,40.841v4.022A4.642,4.642,0,0,0,4.641,49.5H38.675a4.642,4.642,0,0,0,4.641-4.641V40.841A13,13,0,0,0,30.322,27.846Z" transform="translate(156.431 1403.248)" fill="#fff"/>
  </g>
</svg>
